<svg width="29" height="29" viewBox="0 0 29 29" fill="none" xmlns="http://www.w3.org/2000/svg">
<path fill-rule="evenodd" clip-rule="evenodd" d="M22.786 23.8434V25.8929C22.786 26.7176 22.4597 27.5073 21.8758 28.0899C21.2933 28.6724 20.5022 29 19.6788 29H3.10718C2.28377 29 1.49274 28.6725 0.910147 28.0899C0.326262 27.5073 0 26.7176 0 25.8929V3.10714C0 2.28245 0.326256 1.49272 0.910147 0.910136C1.49274 0.327551 2.28377 0 3.10718 0H19.6788C20.5022 0 21.2933 0.327544 21.8758 0.910136C22.4597 1.49272 22.786 2.28245 22.786 3.10714V12.4067C24.6943 13.5965 25.9644 15.7132 25.9644 18.1252C25.9644 19.6283 25.4724 21.0174 24.6373 22.1371L28.6961 26.1958C29.1013 26.5997 29.1013 27.2574 28.6961 27.6613C28.2921 28.0653 27.637 28.0653 27.2331 27.6613L23.1628 23.591C23.0398 23.6791 22.9142 23.7632 22.786 23.8434ZM20.7145 11.5561V3.10728C20.7145 2.83281 20.6058 2.5687 20.4103 2.37452C20.2174 2.18032 19.9533 2.07157 19.6788 2.07157H3.10719C2.83272 2.07157 2.56861 2.18032 2.37572 2.37452C2.18023 2.56872 2.07147 2.83282 2.07147 3.10728V25.893C2.07147 26.1674 2.18022 26.4316 2.37572 26.6257C2.56862 26.8199 2.83273 26.9287 3.10719 26.9287H19.6788C19.9533 26.9287 20.2174 26.8199 20.4103 26.6257C20.6058 26.4315 20.7145 26.1674 20.7145 25.893V24.6941C20.2381 24.8003 19.7422 24.8573 19.2321 24.8573C15.5178 24.8573 12.5001 21.8407 12.5001 18.1253C12.5001 14.4098 15.5179 11.3933 19.2321 11.3933C19.7422 11.3933 20.2381 11.4503 20.7145 11.5564V11.5561ZM22.786 21.1403C22.9168 20.9849 23.0397 20.8205 23.1511 20.6496C23.6198 19.922 23.8929 19.0546 23.8929 18.1251C23.8929 16.9754 23.4761 15.9229 22.786 15.1098C22.2423 14.4703 21.5276 13.9783 20.7146 13.7051C20.2485 13.5498 19.75 13.4643 19.2322 13.4643C16.6597 13.4643 14.5716 15.5526 14.5716 18.1249C14.5716 20.6972 16.6599 22.7854 19.2322 22.7854C19.75 22.7854 20.2485 22.7 20.7146 22.5446C21.0512 22.4307 21.3723 22.2805 21.67 22.098C22.0908 21.839 22.4675 21.5141 22.786 21.1399L22.786 21.1403ZM5.17864 15.5358C4.60638 15.5358 4.14291 15.0724 4.14291 14.5001C4.14291 13.9279 4.60638 13.4644 5.17864 13.4644H10.3573C10.9295 13.4644 11.393 13.9279 11.393 14.5001C11.393 15.0724 10.9295 15.5358 10.3573 15.5358H5.17864ZM5.17864 19.6787C4.60638 19.6787 4.14291 19.2152 4.14291 18.643C4.14291 18.0707 4.60638 17.6073 5.17864 17.6073H9.32154C9.8938 17.6073 10.3573 18.0707 10.3573 18.643C10.3573 19.2152 9.8938 19.6787 9.32154 19.6787H5.17864ZM14.8044 5.91149C14.3992 5.50755 14.3992 4.84989 14.8044 4.44595C15.2084 4.042 15.8635 4.042 16.2674 4.44595L18.3389 6.51738C18.7441 6.92132 18.7441 7.57898 18.3389 7.98292L16.2674 10.0543C15.8635 10.4583 15.2084 10.4583 14.8044 10.0543C14.3992 9.6504 14.3992 8.99275 14.8044 8.58881L16.1418 7.25013L14.8044 5.91149ZM11.2843 9.78523C11.0279 10.2966 10.4052 10.5038 9.89512 10.2474C9.38243 9.99236 9.17528 9.36965 9.43035 8.85826L11.5018 4.7154C11.7582 4.20401 12.3809 3.99686 12.891 4.25322C13.4037 4.50827 13.6108 5.13098 13.3557 5.64237L11.2843 9.78523ZM5.17864 23.8219C4.60638 23.8219 4.14291 23.3584 4.14291 22.7862C4.14291 22.2139 4.60638 21.7505 5.17864 21.7505H11.393C11.9652 21.7505 12.4287 22.2139 12.4287 22.7862C12.4287 23.3584 11.9652 23.8219 11.393 23.8219H5.17864ZM6.51862 4.44625C6.92257 4.0423 7.57764 4.0423 7.98159 4.44625C8.38684 4.85019 8.38684 5.50785 7.98159 5.91179L6.6442 7.25046L7.98159 8.58914C8.38684 8.99308 8.38684 9.65074 7.98159 10.0547C7.57764 10.4586 6.92257 10.4586 6.51862 10.0547L4.44716 7.98325C4.04192 7.57931 4.04192 6.92165 4.44716 6.51771L6.51862 4.44625Z" fill="#21409A"/>
</svg>
