<svg width="29" height="29" viewBox="0 0 29 29" fill="none" xmlns="http://www.w3.org/2000/svg">
<path d="M10.1206 29H2.9325C1.31351 28.9988 0.00243984 27.6635 0 26.0161V18.7021C0.00244359 17.056 1.31351 15.7207 2.9325 15.7182H10.1206C11.7396 15.7207 13.0519 17.056 13.0531 18.7021V26.0161C13.0519 27.6635 11.7396 28.9988 10.1206 29ZM2.9325 17.7075C2.39364 17.7087 1.95622 18.1538 1.955 18.7021V26.0161C1.95622 26.5657 2.39364 27.0108 2.9325 27.0108H10.1206C10.6607 27.0108 11.0981 26.5657 11.0981 26.0161V18.7021C11.0981 18.1538 10.6607 17.7087 10.1206 17.7075H2.9325ZM22.1722 27.6203H16.3084C15.7733 27.6128 15.3444 27.1702 15.3444 26.6256C15.3444 26.0823 15.7733 25.6385 16.3084 25.631H22.1722C22.7073 25.6385 23.1362 26.0823 23.1362 26.6256C23.1362 27.1702 22.7073 27.6128 22.1722 27.6203ZM28.0359 23.3547H16.3084C15.7733 23.3472 15.3444 22.9034 15.3444 22.3601C15.3444 21.8155 15.7733 21.3729 16.3084 21.3654H28.0372C28.5711 21.3729 29 21.8168 29 22.3601C29 22.9034 28.5711 23.346 28.0372 23.3547H28.0359ZM28.0359 19.0878H16.3084C15.7733 19.0804 15.3444 18.6365 15.3444 18.0932C15.3444 17.5487 15.7733 17.106 16.3084 17.0986H28.0372C28.5699 17.1073 28.9988 17.5499 28.9988 18.0932C28.9988 18.6365 28.5699 19.0791 28.0372 19.0878H28.0359ZM10.1209 13.2818H2.93281C1.31382 13.2793 0.00275261 11.944 0.000312777 10.2979V2.98387C0.00275637 1.33652 1.31382 0.00124129 2.93281 0H10.1209C10.6561 0.00745983 11.085 0.450079 11.085 0.994622C11.085 1.53792 10.6561 1.9818 10.1209 1.98924H2.93281C2.39395 1.98924 1.95653 2.43433 1.95531 2.98387V10.2979C1.95653 10.8462 2.39395 11.2913 2.93281 11.2925H10.1209C10.661 11.2913 11.0984 10.8462 11.0984 10.2979V6.64026C11.1058 6.09695 11.542 5.65932 12.0759 5.65932C12.6111 5.65932 13.0461 6.09695 13.0534 6.64026V10.2966C13.0522 11.944 11.7399 13.2793 10.1209 13.2818ZM22.1722 11.9018H16.3084C15.7733 11.8943 15.3444 11.4517 15.3444 10.9071C15.3444 10.3638 15.7733 9.91996 16.3084 9.91252H22.1722C22.7073 9.91998 23.1362 10.3638 23.1362 10.9071C23.1362 11.4517 22.7073 11.8943 22.1722 11.9018ZM6.99764 8.93282C6.7386 8.93282 6.48934 8.82839 6.30607 8.64065L4.16167 6.45869C3.79266 6.06829 3.79876 5.44914 4.17512 5.06622C4.55147 4.6833 5.15993 4.67706 5.54361 5.05254L6.99763 6.53203L10.9505 2.51121V2.50997C11.3342 2.13449 11.9426 2.1407 12.319 2.52364C12.6953 2.90659 12.7014 3.52571 12.3324 3.91736L7.68922 8.64189C7.50594 8.82838 7.25667 8.93282 6.99764 8.93282ZM28.0372 7.63485H16.3084C15.7745 7.62739 15.3456 7.18353 15.3456 6.64023C15.3456 6.09692 15.7745 5.65429 16.3084 5.6456H28.0372C28.5711 5.65431 29 6.09692 29 6.64023C29 7.18353 28.5711 7.6274 28.0372 7.63485ZM28.0372 3.36927H16.3084C15.7733 3.36181 15.3444 2.91795 15.3444 2.37465C15.3444 1.8301 15.7733 1.38747 16.3084 1.38003H28.0372C28.5711 1.38749 29 1.83135 29 2.37465C29 2.91795 28.5711 3.36058 28.0372 3.36927Z" fill="#21409A"/>
</svg>
