<svg width="129" height="52" viewBox="0 0 129 52" fill="none" xmlns="http://www.w3.org/2000/svg">
<path d="M2 2.73533C3.52514 5.11234 5.05306 7.40234 6.58098 9.60534L8.77127 8.06184C7.26005 5.88409 5.75161 3.62215 4.24318 1.2704L2 2.73533ZM8.1089 11.7775C9.73422 14.0591 11.3596 16.2396 12.9849 18.322L15.0861 16.655C13.4831 14.6035 11.8828 12.4538 10.2797 10.2059L8.1089 11.7775ZM14.6659 20.4352C16.422 22.6073 18.1781 24.6644 19.9343 26.6064L21.9075 24.7907C20.1848 22.8879 18.462 20.8673 16.7365 18.7345L14.6659 20.4352ZM21.785 28.6101C23.7109 30.6504 25.6368 32.5503 27.5655 34.3127L29.3606 32.3145C27.482 30.597 25.6007 28.7448 23.7193 26.7523L21.785 28.6101ZM29.6111 36.1284C31.7513 37.975 33.8943 39.6504 36.0345 41.1546L37.5624 38.9432C35.4918 37.4895 33.4212 35.8702 31.3478 34.0826L29.6111 36.1284ZM38.2944 42.6757C40.6795 44.2164 43.0674 45.5466 45.4581 46.6664L46.5824 44.222C44.3003 43.1528 42.0181 41.8815 39.7332 40.4081L38.2944 42.6757ZM47.9267 47.744C50.5511 48.8132 53.1756 49.6243 55.8056 50.1828L56.3567 47.5476C53.8825 47.0228 51.4055 46.2538 48.9258 45.2463L47.9267 47.744ZM58.5219 50.6711C61.2688 51.0696 64.0185 51.193 66.7682 51.0359L66.6152 48.3446C64.0464 48.4905 61.4748 48.3783 58.9032 48.0022L58.5219 50.6711ZM69.5151 50.7861C72.1953 50.4522 74.8754 49.8516 77.5527 48.99L76.7401 46.4222C74.2186 47.2361 71.7027 47.7973 69.1867 48.1116L69.5151 50.7861ZM80.1911 48.0527C82.6597 47.0957 85.1255 45.9143 87.5914 44.5055L86.2749 42.1621C83.926 43.5036 81.5771 44.6289 79.2309 45.5382L80.1911 48.0527ZM89.8985 43.1219C92.1334 41.7187 94.3654 40.1275 96.5975 38.3539L94.9415 36.2379C92.7874 37.9526 90.6361 39.4848 88.4847 40.8347L89.8985 43.1219ZM98.643 36.6729C100.658 34.9694 102.67 33.1144 104.68 31.105L102.801 29.1911C100.842 31.1471 98.8824 32.9516 96.9259 34.6102L98.643 36.6729ZM106.53 29.2163C108.364 27.3024 110.196 25.2621 112.027 23.0956L109.995 21.3472C108.2 23.4717 106.405 25.4698 104.61 27.3445L106.53 29.2163ZM113.705 21.0778C115.383 19.0235 117.059 16.8626 118.734 14.5979L116.594 12.987C114.944 15.2181 113.293 17.3425 111.643 19.3631L113.705 21.0778ZM120.309 12.4398C121.837 10.3154 123.362 8.10393 124.888 5.80551L122.667 4.3069C121.161 6.57726 119.653 8.76062 118.147 10.857L120.309 12.4398ZM126.416 3.47622L127 2.56976L124.757 1.10202L124.175 2.00848L126.416 3.47622Z" fill="#21409A"/>
<path d="M2.12071 2.3176C-0.0141916 3.68139 -0.638729 6.52048 0.728243 8.65538C2.09522 10.7903 4.93112 11.4116 7.06602 10.0447C9.20092 8.68087 9.82546 5.84177 8.45849 3.70688C7.09151 1.57198 4.25561 0.950627 2.12071 2.3176Z" fill="#21409A"/>
<path d="M125.85 9.15891L125.349 2.50001L119.097 4.84301" stroke="#21409A" stroke-width="5" stroke-linecap="round" stroke-linejoin="round"/>
</svg>
