<svg width="129" height="52" viewBox="0 0 129 52" fill="none" xmlns="http://www.w3.org/2000/svg">
<path d="M2 48.3667C3.52514 45.9897 5.05306 43.6997 6.58098 41.4967L8.77127 43.0402C7.26005 45.2179 5.75161 47.4799 4.24318 49.8316L2 48.3667ZM8.1089 39.3245C9.73422 37.043 11.3596 34.8624 12.9849 32.7801L15.0861 34.4471C13.4831 36.4985 11.8828 38.6482 10.2797 40.8961L8.1089 39.3245ZM14.6659 30.6669C16.422 28.4947 18.1781 26.4377 19.9343 24.4956L21.9075 26.3114C20.1848 28.2141 18.462 30.2347 16.7365 32.3675L14.6659 30.6669ZM21.785 22.4919C23.7109 20.4517 25.6368 18.5517 27.5655 16.7893L29.3606 18.7875C27.482 20.505 25.6007 22.3572 23.7193 24.3497L21.785 22.4919ZM29.6111 14.9736C31.7513 13.127 33.8943 11.4516 36.0345 9.94738L37.5624 12.1588C35.4918 13.6125 33.4212 15.2318 31.3478 17.0195L29.6111 14.9736ZM38.2944 8.42633C40.6795 6.88563 43.0674 5.5554 45.4581 4.43566L46.5824 6.88001C44.3003 7.94924 42.0181 9.22053 39.7332 10.6939L38.2944 8.42633ZM47.9267 3.35801C50.5511 2.28878 53.1756 1.47774 55.8056 0.919268L56.3567 3.55446C53.8825 4.07925 51.4055 4.8482 48.9258 5.85569L47.9267 3.35801ZM58.5219 0.430959C61.2688 0.0324537 64.0185 -0.0910275 66.7682 0.0661296L66.6152 2.75745C64.0464 2.61151 61.4748 2.72377 58.9032 3.09982L58.5219 0.430959ZM69.5151 0.315898C72.1953 0.649856 74.8754 1.25042 77.5527 2.11198L76.7401 4.67981C74.2186 3.86597 71.7027 3.30469 69.1867 2.99038L69.5151 0.315898ZM80.1911 3.04931C82.6597 4.00628 85.1255 5.18777 87.5914 6.59657L86.2749 8.93989C83.926 7.59845 81.5771 6.47309 79.2309 5.56382L80.1911 3.04931ZM89.8985 7.98011C92.1334 9.3833 94.3654 10.9745 96.5975 12.7481L94.9415 14.8642C92.7874 13.1495 90.6361 11.6172 88.4847 10.2673L89.8985 7.98011ZM98.643 14.4292C100.658 16.1326 102.67 17.9877 104.68 19.997L102.801 21.911C100.842 19.9549 98.8824 18.1504 96.9259 16.4919L98.643 14.4292ZM106.53 21.8857C108.364 23.7997 110.196 25.8399 112.027 28.0064L109.995 29.7548C108.2 27.6304 106.405 25.6322 104.61 23.7576L106.53 21.8857ZM113.705 30.0242C115.383 32.0785 117.059 34.2394 118.734 36.5041L116.594 38.115C114.944 35.8839 113.293 33.7595 111.643 31.7389L113.705 30.0242ZM120.309 38.6622C121.837 40.7867 123.362 42.9981 124.888 45.2965L122.667 46.7951C121.161 44.5248 119.653 42.3414 118.147 40.245L120.309 38.6622ZM126.416 47.6258L127 48.5323L124.757 50L124.175 49.0935L126.416 47.6258Z" fill="#21409A"/>
<path d="M2.12071 48.7844C-0.0141916 47.4206 -0.638729 44.5815 0.728243 42.4466C2.09522 40.3117 4.93112 39.6904 7.06602 41.0574C9.20092 42.4212 9.82546 45.2602 8.45849 47.3951C7.09151 49.53 4.25561 50.1514 2.12071 48.7844Z" fill="#21409A"/>
<path d="M125.85 41.9431L125.349 48.602L119.097 46.259" stroke="#21409A" stroke-width="5" stroke-linecap="round" stroke-linejoin="round"/>
</svg>
