<svg width="22" height="22" viewBox="0 0 22 22" fill="none" xmlns="http://www.w3.org/2000/svg">
<path d="M10.1407 9.96875H11.8594V14.4375H10.1407V9.96875ZM7.04695 12.0312H8.76569V14.4375H7.04695V12.0312ZM13.2344 7.5625H14.9532V14.4375H13.2344V7.5625ZM2.75064 18.2773C-0.916743 14.1276 -0.917017 7.8727 2.75064 3.72295L5.67663 6.64895C3.60781 9.17373 3.60781 12.8268 5.67663 15.3513L2.75064 18.2773ZM18.2773 19.2495C14.1276 22.9169 7.87277 22.9169 3.72304 19.2495L6.64875 16.3235C9.17351 18.392 12.8266 18.392 15.3511 16.3235L18.2773 19.2495ZM19.2495 3.72295C22.9168 7.8727 22.9168 14.1276 19.2495 18.2773L16.3238 15.3511C18.392 12.8265 18.392 9.17373 16.3238 6.64867L19.2495 3.72295ZM3.72304 2.75055C7.87249 -0.91685 14.1276 -0.91685 18.2773 2.75055L15.3511 5.67655C12.8266 3.608 9.17351 3.608 6.64875 5.67655L3.72304 2.75055Z" fill="#F8A51B"/>
</svg>
