<svg width="16" height="16" viewBox="0 0 16 16" fill="none" xmlns="http://www.w3.org/2000/svg">
<path d="M1.03226 11C0.758486 11 0.495928 11.1054 0.302342 11.2929C0.108756 11.4804 0 11.7348 0 12V12.9999C0 13.7955 0.326266 14.5586 0.907024 15.1211C1.48778 15.6837 2.27546 15.9998 3.09677 15.9998H12.9032C13.7245 15.9998 14.5122 15.6837 15.093 15.1211C15.6737 14.5586 16 13.7955 16 12.9999V12C16 11.7348 15.8912 11.4804 15.6977 11.2929C15.5041 11.1054 15.2415 11 14.9677 11C14.694 11 14.4314 11.1054 14.2378 11.2929C14.0442 11.4804 13.9355 11.7348 13.9355 12V12.9999C13.9355 13.2651 13.8267 13.5195 13.6331 13.707C13.4396 13.8945 13.177 13.9999 12.9032 13.9999H3.09677C2.823 13.9999 2.56044 13.8945 2.36686 13.707C2.17327 13.5195 2.06452 13.2651 2.06452 12.9999V12C2.06452 11.7348 1.95576 11.4804 1.76217 11.2929C1.56859 11.1054 1.30603 11 1.03226 11Z" fill="#21409A"/>
<path d="M7.99978 1.25005e-05C7.726 1.25005e-05 7.46345 0.105365 7.26986 0.292893C7.07627 0.480422 6.96752 0.734765 6.96752 0.99997V8.33466L5.41913 6.83472C5.24653 6.65954 5.01623 6.54819 4.76795 6.5199C4.51968 6.4916 4.26899 6.54813 4.05913 6.67973C3.93472 6.76312 3.83076 6.87199 3.7546 6.99862C3.67844 7.12524 3.63194 7.26654 3.6184 7.41251C3.60486 7.55847 3.6246 7.70554 3.67624 7.84329C3.72787 7.98104 3.81013 8.10612 3.9172 8.20966L6.40494 10.6146C6.82869 11.0238 7.40268 11.2537 8.00107 11.2537C8.59946 11.2537 9.17344 11.0238 9.5972 10.6146L12.0875 8.20966C12.1946 8.10612 12.2768 7.98104 12.3285 7.84329C12.3801 7.70554 12.3999 7.55847 12.3863 7.41251C12.3728 7.26654 12.3263 7.12524 12.2501 6.99862C12.174 6.87199 12.07 6.76312 11.9456 6.67973C11.7357 6.54813 11.485 6.4916 11.2368 6.5199C10.9885 6.54819 10.7582 6.65954 10.5856 6.83472L9.0372 8.33466V0.99997C9.0372 0.868232 9.01033 0.737792 8.95813 0.616144C8.90593 0.494497 8.82943 0.38404 8.73303 0.29112C8.63663 0.198199 8.52222 0.124648 8.39639 0.0746901C8.27055 0.0247326 8.13577 -0.00064619 7.99978 1.25005e-05Z" fill="#21409A"/>
</svg>
