<svg width="14" height="16" viewBox="0 0 14 16" fill="none" xmlns="http://www.w3.org/2000/svg">
<path d="M7.87093 2.97615L10.9947 6.07449L10.4527 6.61215L7.32886 3.51381L7.87093 2.97615ZM10.4062 -6.05357e-06V0.00148537C10.4062 0.000739705 10.4062 0.000739657 10.4054 0.000739657H10.4039L10.4031 0.00148537H10.4024C10.0302 0.00148537 9.65882 0.138696 9.37087 0.413108L0.249495 9.46014C0.0758209 9.63165 -0.00837733 9.86283 0.00290144 10.0925H0.00214942V13.041C0.00214942 13.1484 0.0232019 13.2572 0.066808 13.3609C0.109664 13.4645 0.172817 13.5563 0.249505 13.6331C0.405135 13.7874 0.618664 13.8784 0.847222 13.8784H3.86054C4.0846 13.8784 4.29885 13.7904 4.45751 13.6331L13.5781 4.58681C14.1067 4.04021 14.1322 3.19084 13.654 2.61594L11.3571 0.338484C11.0819 0.113277 10.7445 -6.05357e-06 10.4062 -6.05357e-06ZM0.383441 15.2393V15.2401H0.382689C0.171414 15.2401 0 15.4101 0 15.6196C0 15.8292 0.171418 15.9999 0.38344 15.9999H13.6166C13.8286 15.9999 14 15.8299 14 15.6196C14 15.4101 13.8286 15.2401 13.6166 15.2401L0.383441 15.2393Z" fill="#21409A"/>
</svg>
