<svg width="29" height="29" viewBox="0 0 29 29" fill="none" xmlns="http://www.w3.org/2000/svg">
<path fill-rule="evenodd" clip-rule="evenodd" d="M20.9562 8.10027C21.7951 8.10027 22.5518 8.60586 22.8731 9.38027C23.1943 10.1559 23.0159 11.0481 22.4233 11.6405C21.8296 12.2341 20.9372 12.4114 20.1626 12.0902C19.3868 11.769 18.8823 11.0124 18.8823 10.1738C18.8811 9.62415 19.0989 9.09596 19.4892 8.70697C19.8782 8.31798 20.4065 8.09908 20.9562 8.10027ZM19.2084 19.0816C19.2084 17.4019 18.3112 15.8496 16.856 15.0096C15.4008 14.1697 13.609 14.1698 12.1536 15.0096C10.6982 15.8495 9.80126 17.4019 9.80126 19.0816C9.80126 21.0183 13.4254 21.311 14.5046 21.311C15.5826 21.311 19.2079 21.0064 19.2079 19.0816H19.2084ZM25.3004 17.4281C25.3004 19.2125 21.9498 19.4837 20.9692 19.4837H20.9681C20.6123 19.4801 20.2565 19.4575 19.902 19.4171C19.9186 19.3065 19.9269 19.1946 19.9269 19.0816C19.9234 17.327 19.0691 15.683 17.6365 14.6695C18.8014 13.2729 20.7169 12.7542 22.4279 13.3716C24.1389 13.9878 25.2823 15.6093 25.2871 17.4281L25.3004 17.4281ZM6.07004 3.581C9.6503 0.823494 14.3549 -0.00677009 18.6634 1.35881C22.972 2.72449 26.3366 6.11358 27.6741 10.4295C29.0103 14.7466 28.1477 19.4445 25.3634 23.0048L25.0921 20.8552L25.0933 20.854C25.0862 20.7577 25.0398 20.6684 24.9648 20.6066C24.8911 20.5447 24.7935 20.5162 24.6971 20.5281C24.6019 20.54 24.5139 20.5911 24.4568 20.6684C24.3985 20.7458 24.3759 20.8445 24.3925 20.9397L24.7638 23.897C24.7757 23.9898 24.8233 24.0731 24.897 24.1302C24.9708 24.1885 25.0648 24.2134 25.1564 24.2016L28.1144 23.8304V23.8292C28.3 23.7971 28.4273 23.6258 28.4047 23.439C28.3821 23.2523 28.2167 23.1166 28.0287 23.1297L25.9548 23.3891V23.3879C28.864 19.6393 29.7553 14.7049 28.3404 10.1773C26.9257 5.64848 23.3846 2.09756 18.8585 0.6711C14.3325 -0.755238 9.39458 0.121499 5.63825 3.02056C5.55853 3.07528 5.5038 3.16093 5.48952 3.25729C5.47406 3.35365 5.50023 3.45119 5.55973 3.52733C5.61922 3.60465 5.70727 3.65342 5.80483 3.66294C5.90121 3.67246 5.99759 3.64153 6.07017 3.57729L6.07004 3.581ZM0.956104 5.74012L3.0883 5.56049C0.149401 9.30906 -0.760926 14.2636 0.655068 18.8116C2.07106 23.3596 5.63223 26.9224 10.1799 28.3415C14.7288 29.7607 19.6844 28.8554 23.4361 25.9195C23.5896 25.7993 23.617 25.5793 23.4968 25.4258C23.3778 25.2723 23.1565 25.245 23.003 25.3651C19.4358 28.1452 14.7325 29.0016 10.4133 27.6563C6.09404 26.3109 2.71024 22.9335 1.35508 18.6188C-0.00133901 14.3041 0.844627 9.59928 3.61935 6.02674L3.79902 8.1371C3.82281 8.32386 3.98939 8.46067 4.17858 8.44401C4.36657 8.42855 4.50934 8.26795 4.50222 8.07881L4.25235 5.10956C4.24521 5.01558 4.20119 4.92874 4.1298 4.86807C4.0584 4.80621 3.9656 4.77647 3.8716 4.7836L0.901748 5.0358V5.03699C0.80537 5.04056 0.714943 5.08338 0.650691 5.15476C0.587629 5.22733 0.555503 5.32249 0.563831 5.41885C0.57097 5.51402 0.617374 5.60324 0.692336 5.66391C0.767298 5.72458 0.863673 5.75194 0.960052 5.74005L0.956104 5.74012ZM3.72248 17.428C3.72129 15.6032 4.86592 13.9745 6.58405 13.356C8.30099 12.7374 10.2225 13.2632 11.3864 14.6694C9.95262 15.6829 9.09831 17.3269 9.09474 19.0815C9.09593 19.1945 9.10307 19.3063 9.11973 19.417C8.76515 19.4574 8.4094 19.48 8.05363 19.4836C7.06012 19.4836 3.72248 19.2124 3.72248 17.428ZM8.05359 8.1003C8.89243 8.10149 9.64799 8.60708 9.96806 9.38268C10.2881 10.1583 10.1097 11.0493 9.51591 11.6417C8.92219 12.2342 8.03099 12.4114 7.25639 12.0902C6.48061 11.769 5.97613 11.0125 5.97613 10.1738C5.97613 9.62418 6.19506 9.09599 6.58533 8.707C6.97439 8.31801 7.50269 8.09911 8.05359 8.1003ZM14.505 8.96156C15.4153 8.96156 16.2362 9.50998 16.5849 10.351C16.9335 11.1921 16.7407 12.1604 16.097 12.804C15.4533 13.4476 14.4848 13.6403 13.6436 13.2917C12.8023 12.9432 12.2538 12.1224 12.2538 11.2123C12.2538 9.96919 13.2616 8.96156 14.505 8.96156Z" fill="#21409A"/>
</svg>
