<svg width="22" height="20" viewBox="0 0 22 20" fill="none" xmlns="http://www.w3.org/2000/svg">
<path d="M21.8731 10.2153C21.8861 10.1985 21.8988 10.1817 21.9098 10.1635C21.9203 10.1464 21.9294 10.1289 21.9379 10.1111C21.9457 10.0948 21.9533 10.0788 21.9597 10.0617C21.9677 10.0405 21.9738 10.019 21.9795 9.99728C21.9831 9.98247 21.987 9.96766 21.9897 9.95235C21.9941 9.92667 21.9963 9.90099 21.9976 9.87482C21.9978 9.86618 22 9.85828 22 9.84939C22 9.84494 21.9988 9.84074 21.9988 9.8363C21.9983 9.8084 21.9949 9.78099 21.9905 9.75359C21.9888 9.74223 21.9875 9.73062 21.9851 9.71951C21.9792 9.69235 21.9704 9.66593 21.9606 9.63976C21.957 9.62989 21.954 9.61952 21.9499 9.60989C21.9386 9.58421 21.9247 9.55976 21.9098 9.53557C21.9044 9.52693 21.8998 9.51804 21.8942 9.50964C21.879 9.48767 21.8614 9.46717 21.8428 9.44693C21.8348 9.43804 21.8269 9.42866 21.8184 9.42026C21.8118 9.41384 21.8069 9.40643 21.8 9.40051L11.3909 0.148392C11.3862 0.144194 11.3806 0.141478 11.376 0.137528C11.3742 0.136293 11.373 0.135305 11.3716 0.134071C11.3574 0.122219 11.3456 0.11259 11.329 0.102961C11.328 0.10222 11.3268 0.101726 11.3258 0.100985C11.2706 0.0639491 11.2114 0.037283 11.1496 0.0209871C11.1425 0.018765 11.1354 0.0165429 11.1278 0.0143208C11.1215 0.0125924 11.1139 0.0123454 11.1068 0.0111109C11.0882 0.00765415 11.0699 0.00493827 11.0513 0.00320992C11.0411 0.00222229 11.0308 0.00172835 11.0215 0C11.0108 0 11.0002 0.000493843 10.9895 0.00123457C10.9721 0.00148147 10.9548 0.00246922 10.9374 0.00444448C10.9286 0.00518521 10.9198 0.00592585 10.91 0.00716039C10.902 0.00814802 10.8942 0.0108641 10.8866 0.0125924C10.8663 0.0165429 10.8465 0.0212342 10.8269 0.02716C10.8191 0.0291352 10.811 0.0308635 10.8037 0.0333326C10.7934 0.0367893 10.7829 0.0424682 10.7727 0.0474063C10.7563 0.0543197 10.7404 0.06148 10.7245 0.0698748C10.7169 0.0733315 10.7091 0.0770353 10.702 0.0812327C10.6942 0.0859239 10.6866 0.0928373 10.6788 0.0980223C10.661 0.109874 10.6434 0.121972 10.6265 0.136046C10.6211 0.140491 10.615 0.143453 10.6099 0.148145L1.81451 7.96672L0.201178 9.40026C0.194089 9.40495 0.189444 9.41211 0.184556 9.41927C0.172822 9.4289 0.163289 9.44075 0.153756 9.45038C0.137133 9.4694 0.120756 9.48619 0.108778 9.50767C0.0992445 9.5173 0.0946 9.52915 0.0875111 9.541C0.0733333 9.56248 0.0616 9.58396 0.0520666 9.60791C0.0449777 9.61976 0.0425334 9.63408 0.0378889 9.64618C0.0283556 9.67013 0.0212666 9.69161 0.0166222 9.71556C0.0119777 9.72988 0.0119778 9.74667 0.00953334 9.76099C0.0048889 9.78494 0.0024445 9.80889 0.0024445 9.8326C0.0024445 9.83753 0 9.8447 0 9.84939C0 9.86124 0.0024445 9.87087 0.0024445 9.8805C0.00488894 9.90445 0.0070889 9.92593 0.00953334 9.94741C0.0119778 9.96642 0.0166222 9.98568 0.0212666 10.0025C0.0259111 10.0215 0.033 10.0407 0.0400889 10.0575C0.0471778 10.079 0.0542667 10.0983 0.0638 10.1148C0.0733334 10.1316 0.0804222 10.1459 0.0897111 10.1602C0.101444 10.1817 0.115622 10.201 0.1298 10.22C0.136889 10.2272 0.139333 10.2368 0.146422 10.2439C0.151067 10.2464 0.153511 10.2486 0.158156 10.2536C0.176978 10.2751 0.200689 10.2965 0.2244 10.3158C0.233933 10.323 0.241022 10.3301 0.248111 10.3348C0.278911 10.3563 0.311911 10.3753 0.345156 10.3921C0.3476 10.3921 0.3498 10.3946 0.352244 10.3946C0.425578 10.4279 0.506 10.4471 0.591067 10.4471H1.61333V19.4027C1.61333 19.7326 1.87807 20 2.20464 20H7.81758C7.99944 20 8.14684 19.8511 8.14684 19.6674V14.2799C8.14684 13.995 8.3754 13.7641 8.65749 13.7641H13.3425C13.6246 13.7641 13.8532 13.995 13.8532 14.2799V19.6674C13.8532 19.8511 14.0006 20 14.1824 20H19.7954C20.1219 20 20.3867 19.7326 20.3867 19.4027V10.4469H21.4087C21.4935 10.4469 21.5739 10.4281 21.647 10.3955C21.6522 10.3933 21.6568 10.3899 21.6617 10.3874C21.6927 10.3726 21.7223 10.3558 21.7502 10.3358C21.7604 10.3286 21.7695 10.3195 21.779 10.3116C21.8008 10.2936 21.822 10.2751 21.8411 10.2543C21.845 10.2501 21.8497 10.2474 21.8533 10.243C21.8609 10.2343 21.866 10.2244 21.8731 10.2153Z" fill="#F8A51B"/>
</svg>
