<svg width="10" height="13" viewBox="0 0 10 13" fill="none" xmlns="http://www.w3.org/2000/svg">
<path d="M7.11745 3.9036C7.11745 2.45567 6.2467 1.44447 4.99998 1.44447C3.75327 1.44447 2.88258 2.45567 2.88258 3.9036V4.9689H1.45401V3.9036C1.45401 1.67821 2.97843 0 4.99998 0C7.02154 0 8.54602 1.67821 8.54602 3.9036V4.9689H7.11745V3.9036Z" fill="#222222"/>
<path d="M1.86572 5.95964H8.13428C8.62905 5.95978 9.10353 6.15857 9.45339 6.51233C9.80325 6.86608 9.99986 7.34584 10 7.84612V11.1135C9.99986 11.6138 9.80325 12.0936 9.45339 12.4473C9.10353 12.8011 8.62905 12.9999 8.13428 13H1.86572C1.37094 12.9999 0.896467 12.8011 0.546606 12.4473C0.196744 12.0936 0.000133514 11.6138 -3.8147e-06 11.1135V7.84612C0.000133514 7.34584 0.196744 6.86608 0.546606 6.51233C0.896467 6.15857 1.37094 5.95978 1.86572 5.95964ZM4.51286 9.62427V11.0572C4.51286 11.1219 4.52546 11.1859 4.54994 11.2457C4.57443 11.3054 4.61031 11.3597 4.65554 11.4055C4.70078 11.4512 4.75448 11.4875 4.81358 11.5122C4.87268 11.537 4.93602 11.5497 4.99999 11.5497C5.06396 11.5497 5.12731 11.537 5.18641 11.5122C5.24551 11.4875 5.29921 11.4512 5.34445 11.4055C5.38968 11.3597 5.42556 11.3054 5.45004 11.2457C5.47452 11.1859 5.48712 11.1219 5.48712 11.0572V9.62427C5.72414 9.5122 5.91628 9.32176 6.03181 9.08439C6.14735 8.84702 6.17938 8.57691 6.12261 8.31865C6.06584 8.06039 5.92367 7.82942 5.71957 7.66388C5.51547 7.49834 5.26164 7.40812 4.99999 7.40812C4.73834 7.40812 4.48452 7.49834 4.28042 7.66388C4.07632 7.82942 3.93415 8.06039 3.87738 8.31865C3.82061 8.57691 3.85264 8.84702 3.96817 9.08439C4.08371 9.32176 4.27585 9.5122 4.51286 9.62427Z" fill="#222222"/>
</svg>
