<svg width="26" height="22" viewBox="0 0 26 22" fill="none" xmlns="http://www.w3.org/2000/svg">
<path d="M25.9675 8.36027C25.9036 8.25503 25.7687 8.22224 25.6662 8.28723L17.9629 13.1404L17.1572 11.6179L25.5249 4.59348C25.618 4.51508 25.6318 4.37406 25.555 4.27866C25.4779 4.18297 25.3401 4.16955 25.2467 4.24766L18.55 9.86937L13.3905 0.115075C13.3876 0.109411 13.3826 0.105834 13.3794 0.100467C13.3727 0.089735 13.3648 0.0798969 13.3566 0.070655C13.3487 0.0620095 13.34 0.0536618 13.3306 0.0462087C13.3219 0.0390538 13.3123 0.0327934 13.302 0.0271291C13.2907 0.0208685 13.2787 0.0152039 13.2661 0.0110302C13.2609 0.00924145 13.2568 0.00566416 13.2512 0.00447167C13.246 0.00327917 13.241 0.00417363 13.2358 0.00327926C13.2226 0.000894274 13.2095 0 13.1964 0C13.1847 0 13.173 0.000894438 13.1613 0.0029813C13.1552 0.00417379 13.1496 0.00298105 13.1438 0.00447167C13.1377 0.00596228 13.1333 0.00983793 13.1275 0.0116267C13.1158 0.0158004 13.1047 0.0208683 13.0942 0.0265326C13.0837 0.0324951 13.0734 0.039054 13.0638 0.0468052C13.0548 0.0539602 13.0463 0.0617115 13.0387 0.0703571C13.0302 0.0795989 13.0226 0.0894369 13.0156 0.100467C13.0121 0.105834 13.0075 0.109411 13.0045 0.115075L8.95993 7.76194L1.55999 0.205407C1.47445 0.118057 1.33578 0.118057 1.25024 0.205407C1.1647 0.292757 1.1647 0.434365 1.25024 0.521716L10.2474 9.70928L9.45011 11.2166L1.14864 4.24766C1.05551 4.16925 0.917423 4.18267 0.840349 4.27866C0.763275 4.37406 0.776996 4.51478 0.870419 4.59348L9.23816 11.6179L8.43239 13.1407L0.729409 8.28753C0.626645 8.22254 0.492058 8.25533 0.428122 8.36057C0.36477 8.4658 0.396884 8.60324 0.499649 8.66823L8.22452 13.5345L7.41204 15.0701L0.296163 12.3256C0.183764 12.2824 0.0570597 12.3402 0.0141437 12.4559C-0.0284803 12.5716 0.0284491 12.7003 0.141724 12.7442L5.27763 14.7249L3.17095 18.7069C3.16569 18.7165 3.16423 18.7266 3.16044 18.7367C3.15869 18.7415 3.15489 18.7451 3.15372 18.7499C3.15285 18.7525 3.15372 18.7552 3.15285 18.7582C3.14672 18.7841 3.1438 18.8101 3.14643 18.8354C3.14701 18.8405 3.14905 18.8453 3.14993 18.85C3.15372 18.8706 3.15956 18.8906 3.16832 18.9091C3.17182 18.9168 3.1762 18.924 3.18087 18.9314C3.18525 18.9383 3.18759 18.946 3.19284 18.9526C3.19693 18.958 3.20335 18.9597 3.20773 18.9648C3.22116 18.9788 3.23605 18.9904 3.25182 19.0006C3.26262 19.0071 3.27313 19.0137 3.2851 19.0188C3.29123 19.0212 3.29561 19.0259 3.30203 19.0277L13.1365 21.9908C13.1569 21.997 13.178 22 13.1984 22C13.2188 22 13.2399 21.997 13.2603 21.9908L23.0948 19.0277C23.1009 19.0259 23.1053 19.0212 23.1117 19.0188C23.1237 19.014 23.1342 19.0074 23.145 19.0006C23.161 18.9907 23.1756 18.9791 23.1891 18.9648C23.1934 18.9597 23.1999 18.958 23.2039 18.9526C23.2092 18.946 23.2115 18.9383 23.2159 18.9314C23.2206 18.9243 23.225 18.9168 23.2285 18.9094C23.2372 18.8906 23.2434 18.8709 23.2469 18.85C23.2477 18.845 23.2498 18.8405 23.2504 18.8354C23.253 18.8101 23.2501 18.7841 23.2439 18.7579C23.2431 18.7552 23.2439 18.7525 23.2431 18.7499C23.2416 18.7448 23.2378 18.7415 23.2364 18.7367C23.2326 18.7269 23.2308 18.7165 23.2258 18.7069L19.9096 12.4392L25.896 8.66793C25.9987 8.60324 26.0309 8.46551 25.9675 8.36027ZM13.1978 21.543L4.15889 18.8193L13.1978 16.2576L22.2367 18.8193L13.1978 21.543Z" fill="white"/>
</svg>
