<svg width="16" height="16" viewBox="0 0 16 16" fill="none" xmlns="http://www.w3.org/2000/svg">
<path d="M15.7106 1.3809H0.289519C0.210399 1.37193 0.131999 1.39814 0.0758882 1.45192C0.0197849 1.50571 -0.00754594 1.58088 0.00180431 1.65674C-0.00754613 1.73259 0.019786 1.80776 0.0758882 1.86155C0.131992 1.91534 0.210392 1.94154 0.289519 1.93258H1.44035V12.9935C1.44035 13.7858 1.76689 14.5464 2.34878 15.1097C2.93068 15.6724 3.72114 15.9924 4.54751 16H11.3374C12.1638 15.9924 12.9543 15.6724 13.5361 15.1097C14.118 14.5464 14.4446 13.7857 14.4446 12.9935V1.93258H15.7105C15.7896 1.94154 15.868 1.91534 15.9241 1.86155C15.9802 1.80776 16.0075 1.7326 15.9982 1.65674C16.0075 1.58088 15.9802 1.50572 15.9241 1.45192C15.868 1.39814 15.7898 1.37193 15.7106 1.3809ZM5.35317 12.69C5.36252 12.7658 5.33519 12.841 5.27908 12.8948C5.22298 12.9486 5.14458 12.9748 5.06545 12.9658C4.90649 12.9658 4.77775 12.8424 4.77775 12.69V4.96665C4.77775 4.81425 4.90649 4.69082 5.06545 4.69082C5.14457 4.68185 5.22297 4.70806 5.27908 4.76185C5.33519 4.81563 5.36252 4.8908 5.35317 4.96666V12.69ZM8.23024 12.69C8.23959 12.7658 8.21226 12.841 8.15616 12.8948C8.10005 12.9486 8.02165 12.9748 7.94252 12.9658C7.78357 12.9658 7.65482 12.8424 7.65482 12.69V4.96665C7.65482 4.81425 7.78357 4.69082 7.94252 4.69082C8.02164 4.68185 8.10004 4.70806 8.15616 4.76185C8.21226 4.81563 8.23959 4.8908 8.23024 4.96666V12.69ZM11.1073 12.69C11.1167 12.7658 11.0893 12.841 11.0332 12.8948C10.9771 12.9486 10.8987 12.9748 10.8196 12.9658C10.6606 12.9658 10.5319 12.8424 10.5319 12.69V4.96665C10.5319 4.81425 10.6606 4.69082 10.8196 4.69082C10.8987 4.68185 10.9771 4.70806 11.0332 4.76185C11.0893 4.81563 11.1167 4.8908 11.1073 4.96666V12.69ZM5.35317 0.277563C5.35317 0.125166 5.48192 0.00172985 5.64087 0.00172985H10.2442C10.3233 -0.0072347 10.4017 0.0189694 10.4578 0.0727563C10.5139 0.126544 10.5413 0.201709 10.5319 0.27757C10.5413 0.353425 10.5139 0.42859 10.4578 0.482385C10.4017 0.536173 10.3233 0.562375 10.2442 0.553411H5.64087C5.48192 0.553411 5.35317 0.429961 5.35317 0.277563Z" fill="#21409A"/>
</svg>
