<svg width="15" height="11" viewBox="0 0 15 11" fill="none" xmlns="http://www.w3.org/2000/svg">
<path d="M4.83925 0C3.49745 2.2299e-05 2.40972 1.20185 2.40973 2.68438C2.40974 4.09511 3.3947 5.25156 4.64625 5.36025C4.61076 5.26222 4.57998 5.1618 4.5552 5.05883C4.03034 3.30893 5.07579 1.35598 6.61017 0.84683C6.16699 0.325625 5.53759 -5.75449e-06 4.83925 0ZM10.1613 0C9.45617 1.04302e-05 8.82131 0.332045 8.37749 0.862179C8.93259 1.04947 9.43779 1.41146 9.81753 1.89978C10.611 2.8482 10.7268 4.22229 10.3096 5.36356C11.5823 5.2789 12.5909 4.11188 12.5909 2.68438C12.5909 1.20183 11.5031 -1.07897e-05 10.1613 0ZM7.5003 1.3976C6.1585 1.39762 5.07077 2.59945 5.07078 4.08197C5.07078 5.56448 6.15852 6.76628 7.5003 6.7663C8.8421 6.76631 9.92986 5.5645 9.92987 4.08197C9.92988 2.59943 8.84212 1.39759 7.5003 1.3976ZM2.21418 5.57929C0.966208 5.55303 0.135117 7.81704 0 9.6024H2.23722C2.43486 8.73054 2.76239 7.89126 3.28857 7.1766C3.64191 6.66948 4.14846 6.40117 4.67119 6.32077C4.84202 6.29449 5.01449 6.29354 5.18662 6.30343C5.16123 6.27203 5.13647 6.23997 5.11201 6.20758C5.02698 6.21791 4.93677 6.22375 4.83925 6.2237C3.83144 6.22317 3.58095 5.60805 2.21418 5.57929ZM12.784 5.5842C11.4187 5.61213 11.1691 6.2242 10.1613 6.2237C10.0572 6.22363 9.96159 6.21677 9.8716 6.20493C9.84505 6.24248 9.81777 6.27944 9.78974 6.31574C10.1944 6.27988 10.6176 6.32179 11.001 6.55471L11.0088 6.55957L11.0161 6.56493C12.001 7.27159 12.4891 8.41386 12.7479 9.6024H15C14.863 7.8187 14.0306 5.5587 12.784 5.5842ZM4.87523 6.97688C3.62726 6.95063 2.79617 9.21465 2.66105 11H12.339C12.202 9.2163 11.3696 6.9563 10.123 6.9818C8.75766 7.00973 8.50812 7.62179 7.5003 7.6213C6.49249 7.62076 6.24201 7.00564 4.87523 6.97688Z" fill="#222222"/>
</svg>
