<svg width="14" height="14" viewBox="0 0 14 14" fill="none" xmlns="http://www.w3.org/2000/svg">
<path d="M10.4155 6.95162C10.1691 6.95162 9.92391 6.97616 9.68249 7.02585L9.63445 7.03566L9.60139 7.00069L9.60201 7.00008C8.95885 6.36026 8.13976 5.91858 7.24451 5.73026L7.0692 5.68793L7.21268 5.57996C7.91949 5.04995 8.36616 4.25125 8.4435 3.38075C8.52086 2.50965 8.22267 1.64716 7.62067 1.00423C7.01868 0.360722 6.16964 -0.00366272 5.28073 2.77631e-05C4.39177 0.00370835 3.54526 0.375452 2.94942 1.02386C2.35303 1.67166 2.0617 2.53662 2.14655 3.40713C2.23202 4.277 2.68554 5.07146 3.39671 5.59598L3.54081 5.70272L3.36551 5.74627C2.5408 5.93092 1.77848 6.3223 1.15285 6.88177C0.388026 7.60563 0 8.57059 0 9.74841V11.6882C0.000623792 12.2667 0.477235 12.736 1.06551 12.7366H7.66691L7.69249 12.766C8.48664 13.6794 9.69929 14.1315 10.909 13.9665C12.1193 13.8009 13.1605 13.0408 13.6714 11.9495C14.1823 10.8582 14.0931 9.58647 13.4343 8.57496C12.7749 7.56339 11.6377 6.95115 10.4156 6.95178L10.4155 6.95162ZM2.47786 3.11084C2.47786 2.37594 2.77481 1.6717 3.30257 1.15269C3.83096 0.633101 4.54712 0.341097 5.29389 0.341097C6.04124 0.341097 6.7574 0.633101 7.28584 1.15269C7.8136 1.67167 8.11055 2.37652 8.11055 3.11084C8.11055 3.84514 7.8136 4.54999 7.28584 5.069C6.75745 5.58859 6.04129 5.87998 5.29389 5.87998C4.54778 5.87937 3.83163 5.58736 3.30385 5.06839C2.77546 4.5488 2.47848 3.84516 2.47786 3.11084ZM10.4155 13.6615C9.55647 13.6615 8.73239 13.326 8.12537 12.7285C7.51776 12.131 7.17652 11.3213 7.17652 10.4765C7.17652 9.63178 7.51776 8.82145 8.12537 8.22391C8.73236 7.62702 9.55644 7.29147 10.4155 7.29147C11.2745 7.29147 12.0986 7.62702 12.7056 8.22391C13.3132 8.82141 13.6544 9.63176 13.6544 10.4765C13.6538 11.3206 13.312 12.1303 12.705 12.7272C12.0974 13.3247 11.2745 13.6603 10.4155 13.6615ZM12.8404 11.5495C12.8404 11.6047 12.8129 11.6562 12.7674 11.6881L11.7886 12.3672C11.7106 12.4212 11.6033 12.4028 11.5484 12.3261C11.4935 12.25 11.5116 12.1439 11.5896 12.0899L12.1236 11.7194H11.1735C10.8678 11.72 10.5834 11.5648 10.423 11.309L10.0993 10.7974L9.77553 11.309C9.61458 11.5648 9.3301 11.72 9.02444 11.7194H8.16355C8.11739 11.7194 8.07372 11.7016 8.04128 11.6697C8.00884 11.6378 7.99013 11.5943 7.99013 11.5495C7.99013 11.5041 8.00884 11.4612 8.04128 11.4292C8.07372 11.3974 8.11739 11.3796 8.16355 11.3796H9.02444C9.21097 11.3802 9.38439 11.2857 9.48233 11.1299L9.89592 10.4766L9.48233 9.82324C9.38439 9.66743 9.21097 9.57234 9.02444 9.57295H8.16355C8.11739 9.57356 8.07372 9.55577 8.04128 9.52388C8.00884 9.49198 7.99013 9.44842 7.99013 9.40364C7.99013 9.35824 8.00884 9.31469 8.04128 9.28279C8.07372 9.25089 8.11739 9.2331 8.16355 9.23372H9.02444C9.33012 9.23249 9.61458 9.38769 9.77553 9.6435L10.0993 10.1551L10.423 9.6435C10.5834 9.3877 10.8678 9.23249 11.1735 9.23372H12.123L11.5896 8.86258C11.5116 8.8086 11.4929 8.70309 11.5478 8.6264C11.574 8.5896 11.6146 8.56445 11.6595 8.55647C11.705 8.54911 11.7512 8.55954 11.7886 8.5853L12.7674 9.26438C12.813 9.29628 12.8404 9.34842 12.8404 9.40364C12.8404 9.45884 12.813 9.51038 12.7674 9.54227L11.7886 10.2214C11.7512 10.2471 11.705 10.2575 11.6595 10.2502C11.6146 10.2422 11.574 10.2177 11.5478 10.1809C11.4929 10.1042 11.5116 9.99805 11.5896 9.94408L12.1236 9.57355L11.1735 9.57294C10.9876 9.57233 10.8142 9.66741 10.7163 9.82323L10.3027 10.4766L10.7163 11.1299C10.8142 11.2857 10.9876 11.3802 11.1735 11.3795H12.123L11.589 11.009H11.5896C11.5522 10.9826 11.5266 10.9434 11.5185 10.8992C11.511 10.8544 11.5216 10.809 11.5478 10.7722C11.6027 10.6956 11.7106 10.6772 11.7886 10.7311L12.7674 11.4102V11.4108C12.813 11.4421 12.8404 11.4943 12.8404 11.5495Z" fill="#222222"/>
</svg>
