<svg width="16" height="16" viewBox="0 0 16 16" fill="none" xmlns="http://www.w3.org/2000/svg">
<path d="M8.50866 0H1.70176C0.761904 0 0 0.767493 0 1.71424V14.2853C0 15.2321 0.761904 15.9996 1.70176 15.9996H10.7778C11.7177 15.9996 12.4795 15.2321 12.4795 14.2853H11.345C11.345 14.6009 11.0911 14.8567 10.7778 14.8567H1.70176C1.38847 14.8567 1.1345 14.6009 1.1345 14.2853V1.71424C1.1345 1.39866 1.38847 1.14283 1.70176 1.14283H7.94152V3.42848C7.94152 3.74407 8.19548 3.9999 8.50878 3.9999H11.345V5.14272H12.4795V3.43437C12.4798 3.41053 12.4785 3.38676 12.4759 3.36321C12.4711 3.32229 12.4621 3.28223 12.4491 3.24369C12.4158 3.14563 12.3563 3.05736 12.2754 2.98951L8.87193 0.132448C8.8611 0.123345 8.84992 0.114671 8.83852 0.106449C8.74095 0.0362219 8.62535 0 8.50866 0Z" fill="#21409A"/>
<path fill-rule="evenodd" clip-rule="evenodd" d="M8 9.76014C8 7.55106 9.79079 5.76025 11.9999 5.76025C14.2089 5.76025 15.9997 7.55106 15.9997 9.76014C15.9997 11.9692 14.2089 13.76 11.9999 13.76C9.79079 13.76 8 11.9692 8 9.76014ZM10.7877 8.54801C11.0109 8.32487 11.3727 8.32487 11.5958 8.54801L11.9999 8.95205L12.4039 8.54801C12.6271 8.32487 12.9889 8.32487 13.212 8.54801C13.4352 8.77114 13.4352 9.13296 13.212 9.3561L12.8079 9.76014L13.212 10.1642C13.4352 10.3874 13.4352 10.7491 13.212 10.9723C12.9889 11.1955 12.6271 11.1955 12.4039 10.9723L11.9999 10.5682L11.5958 10.9723C11.3727 11.1955 11.0109 11.1955 10.7877 10.9723C10.5646 10.7491 10.5646 10.3874 10.7877 10.1642L11.1918 9.76014L10.7877 9.3561C10.5646 9.13296 10.5646 8.77114 10.7877 8.54801Z" fill="#21409A"/>
</svg>
