<svg width="19" height="15" viewBox="0 0 19 15" fill="none" xmlns="http://www.w3.org/2000/svg">
<path d="M15.5154 0.413775C11.5438 -0.137925 7.45701 -0.137925 3.48429 0.413775C1.8451 0.641603 0.568754 1.89108 0.310917 3.52379C0.104998 4.83456 0 6.17296 0 7.49899C0 8.82501 0.10398 10.1767 0.316007 11.4956C0.56882 13.0915 1.87161 14.3593 3.48442 14.5842C5.47023 14.8611 7.49576 15 9.5 15C11.5042 15 13.5296 14.8611 15.5156 14.5842C17.1517 14.3564 18.4249 13.1171 18.684 11.4956C18.895 10.1777 19 8.83312 19 7.49899C19 6.16485 18.896 4.82131 18.684 3.50234C18.4312 1.90651 17.1283 0.638702 15.5154 0.413775ZM12.8977 7.95146L7.4591 11.0981C7.37857 11.1451 7.28988 11.1686 7.19813 11.1686C7.10638 11.1686 7.01769 11.1451 6.93716 11.0981C6.77508 11.0061 6.67619 10.8335 6.67619 10.6455V4.35301C6.67619 4.16503 6.77508 3.99237 6.93716 3.90041C7.09925 3.80642 7.29701 3.80642 7.4591 3.90041L12.8977 7.04704C13.0598 7.13899 13.1586 7.31368 13.1586 7.49964C13.1586 7.68558 13.0598 7.86028 12.8977 7.95224V7.95146Z" fill="#828282"/>
</svg>
